<svg width="50" height="40" viewBox="0 0 50 40" fill="none" xmlns="http://www.w3.org/2000/svg">
<path d="M47.0338 16.4706V18.8235H38.8028C36.8546 18.8235 35.2753 17.2434 35.2753 15.2941V10.5882C35.2753 8.63901 36.8546 7.05884 38.8028 7.05884H47.0338V9.41178H38.8028C38.1534 9.41178 37.627 9.9385 37.627 10.5882V15.2941C37.627 15.9439 38.1534 16.4706 38.8028 16.4706H47.0338ZM4.70337 15.2941C4.70337 14.6444 5.22981 14.1177 5.87921 14.1177C6.52861 14.1177 7.05506 14.6444 7.05506 15.2941V24.7059C7.05506 25.3556 6.52861 25.8824 5.87921 25.8824C5.22981 25.8824 4.70337 25.3556 4.70337 24.7059V15.2941ZM21.1652 20C21.1652 19.3503 21.6916 18.8235 22.341 18.8235C22.9904 18.8235 23.5169 19.3503 23.5169 20V24.7059C23.5169 25.3556 22.9904 25.8824 22.341 25.8824C21.6916 25.8824 21.1652 25.3556 21.1652 24.7059V20ZM38.8028 40C35.5558 40 32.9236 37.3664 32.9236 34.1177C32.9236 30.8689 35.5558 28.2353 38.8028 28.2353C42.0499 28.2353 44.6821 30.8689 44.6821 34.1177C44.6821 37.3664 42.0499 40 38.8028 40ZM38.8028 37.6471C40.751 37.6471 42.3304 36.0669 42.3304 34.1177C42.3304 32.1684 40.751 30.5883 38.8028 30.5883C36.8546 30.5883 35.2753 32.1684 35.2753 34.1177C35.2753 36.0669 36.8546 37.6471 38.8028 37.6471ZM12.9343 40C9.68727 40 7.05506 37.3664 7.05506 34.1177C7.05506 30.8689 9.68727 28.2353 12.9343 28.2353C16.1813 28.2353 18.8135 30.8689 18.8135 34.1177C18.8135 37.3664 16.1813 40 12.9343 40ZM12.9343 37.6471C14.8825 37.6471 16.4618 36.0669 16.4618 34.1177C16.4618 32.1684 14.8825 30.5883 12.9343 30.5883C10.9861 30.5883 9.40675 32.1684 9.40675 34.1177C9.40675 36.0669 10.9861 37.6471 12.9343 37.6471Z" fill="#222132"/>
<path d="M7.17267 32.9412H3.52753C1.57933 32.9412 0 31.361 0 29.4118V27.0588C0 25.1096 1.57933 23.5294 3.52753 23.5294H28.4339C28.2957 23.1454 28.2203 22.7307 28.2203 22.2981V8.89787C28.2148 9.20023 28.1681 9.50602 28.077 9.80883L25.5575 18.1817C25.1044 19.6873 23.6695 20.7301 22.0158 20.8185L15.3907 21.1726C15.1878 21.191 14.9766 21.1568 14.7767 21.0606L2.08904 14.9607C0.50589 14.2288 -0.317246 12.3971 0.113716 10.6564L2.07087 2.75154C2.50211 1.0098 4.07237 -0.162231 5.79342 0.0183145L19.964 0.000275433C20.2665 -0.00624685 20.5714 0.103309 20.8062 0.330209L26.5411 5.87156C27.5824 6.53885 28.1995 7.62718 28.2203 8.77812V5.9372C28.2203 3.95767 29.7996 2.35294 31.7478 2.35294C31.9147 2.35294 32.0814 2.36498 32.2467 2.38896L44.4588 4.16161C45.8786 4.36771 47.0343 5.42675 47.3822 6.84054L49.2801 14.5544C49.3501 14.8387 49.3854 15.1307 49.3854 15.4238V22.2981C49.3854 23.2205 49.0425 24.0616 48.4791 24.6968C49.0425 25.3223 49.3854 26.1505 49.3854 27.0588V29.4118C49.3854 31.361 47.8061 32.9412 45.8579 32.9412H44.5645C44.3881 32.0719 44.0202 31.2723 43.5067 30.5882L43.5095 30.5882H45.8579C46.5073 30.5882 47.0338 30.0615 47.0338 29.4118V27.0588C47.0338 26.4091 46.5073 25.8824 45.8579 25.8824H3.52753C2.87813 25.8824 2.35169 26.4091 2.35169 27.0588V29.4118C2.35169 30.0615 2.87813 30.5882 3.52753 30.5882H7.7216C7.87899 30.5882 8.02915 30.6192 8.16635 30.6753C7.68631 31.3398 7.3416 32.1085 7.17267 32.9412ZM17.6789 30.6432C17.7913 30.6075 17.911 30.5882 18.0352 30.5882H34.0956H34.099C33.5855 31.2723 33.2176 32.0719 33.0412 32.9412H18.6959C18.5242 32.0951 18.1711 31.315 17.6789 30.6432ZM20.6365 3.43728L16.8128 18.7402L21.8903 18.4689C22.5873 18.4316 23.1492 18.0233 23.3056 17.5034L25.8251 9.1305C25.9693 8.65151 25.7472 8.13051 25.2202 7.82069L24.9991 7.65264L20.6365 3.43728ZM31.7478 4.74244C31.0984 4.74244 30.5719 5.27735 30.5719 5.9372V22.2981C30.5719 22.9579 31.0984 23.4928 31.7478 23.4928H45.8579C46.5073 23.4928 47.0338 22.9579 47.0338 22.2981V15.4238C47.0338 15.3261 47.022 15.2288 46.9986 15.134L45.1007 7.42008C44.9847 6.94881 44.5995 6.5958 44.1262 6.5271L31.9141 4.75445C31.859 4.74646 31.8034 4.74244 31.7478 4.74244ZM5.72756 2.37134L5.57411 2.36148C5.03974 2.2918 4.51182 2.67812 4.35356 3.31731L2.39641 11.2222C2.23082 11.891 2.53898 12.5767 3.0915 12.8323L14.495 18.3148L18.4828 2.3551L5.72756 2.37134Z" fill="#222132"/>
</svg>
