<svg width="49" height="50" viewBox="0 0 49 50" fill="none" xmlns="http://www.w3.org/2000/svg">
<path d="M30.3333 8.52864L16.3333 2.44334V39.7826C16.524 39.7658 16.718 39.7959 16.8975 39.8733L30.3333 45.6619V8.52864ZM32.6667 9.4446V46.6671L46.6667 40.1986V3.10229L33.1728 9.33713C33.0125 9.41121 32.8394 9.44708 32.6667 9.4446ZM14.001 3.54007L2.33333 9.02663V46.1265L14.0745 40.7438C14.0264 40.616 14 40.4774 14 40.3327V3.61001C14 3.58662 14.0003 3.5633 14.001 3.54007ZM1.65286 49.0052C0.880064 49.3595 0 48.7948 0 47.9447V8.27805C0 7.82191 0.265833 7.40761 0.680477 7.21752L15.8324 0.106133C16.1326 -0.0314694 16.477 -0.0354384 16.7802 0.0952102L32.6668 7.00055L47.344 0.218973C48.1171 -0.138238 49 0.426417 49 1.27805V40.9447C49 41.3996 48.7356 41.813 48.3227 42.0038L33.1728 49.0038C32.872 49.1428 32.5262 49.1473 32.2219 49.0162L16.4506 42.2214L1.65286 49.0052Z" fill="#222132"/>
</svg>
