<svg width="50" height="42" viewBox="0 0 50 42" fill="none" xmlns="http://www.w3.org/2000/svg">
<g clip-path="url(#clip0_301_470)">
<path d="M21.1652 28H28.2202V23.3333H21.1652V28ZM30.5719 21V28.2333C30.5719 29.3931 29.6243 30.3333 28.4554 30.3333H20.93C19.7611 30.3333 18.8135 29.3931 18.8135 28.2333V21H30.5719ZM14.1101 9.33333V5.83333C14.1101 2.61167 16.7423 0 19.9893 0H29.3961C32.6431 0 35.2753 2.61167 35.2753 5.83333V9.33333H14.1101ZM32.9236 7V5.83333C32.9236 3.90034 31.3443 2.33333 29.3961 2.33333H19.9893C18.0411 2.33333 16.4618 3.90034 16.4618 5.83333V7H32.9236Z" fill="#222132"/>
<path d="M47.0338 22.1672C46.0512 22.8995 44.8298 23.3335 43.5062 23.3335H5.87922C4.55568 23.3335 3.33429 22.8995 2.35169 22.1672V33.8335C2.35169 37.0551 4.9839 39.6668 8.23091 39.6668H41.1545C44.4015 39.6668 47.0338 37.0551 47.0338 33.8335V22.1672ZM3.52753 7.00012H45.8579C47.8061 7.00012 49.3854 8.56713 49.3854 10.5001V33.8335C49.3854 38.3438 45.7003 42.0001 41.1545 42.0001H8.23091C3.6851 42.0001 0 38.3438 0 33.8335V10.5001C0 8.56713 1.57933 7.00012 3.52753 7.00012ZM3.52753 9.33346C2.87813 9.33346 2.35169 9.85579 2.35169 10.5001V17.5001C2.35169 19.4331 3.93102 21.0001 5.87922 21.0001H43.5062C45.4544 21.0001 47.0338 19.4331 47.0338 17.5001V10.5001C47.0338 9.85579 46.5073 9.33346 45.8579 9.33346H3.52753Z" fill="#222132"/>
</g>
<defs>
<clipPath id="clip0_301_470">
<rect width="49.3854" height="42" fill="white"/>
</clipPath>
</defs>
</svg>
